<?xml version="1.0" encoding="UTF-8"?><svg id="Calque_2" xmlns="http://www.w3.org/2000/svg" xmlns:xlink="http://www.w3.org/1999/xlink" viewBox="0 0 204 204"><defs><style>.cls-1{fill:url(#Dégradé_sans_nom);}.cls-2{fill:#f9f9f9;}</style><linearGradient id="Dégradé_sans_nom" x1="125.1" y1="2.65" x2="78.9" y2="201.35" gradientUnits="userSpaceOnUse"><stop offset="0" stop-color="#aa367c"/><stop offset="1" stop-color="#4a2fbd"/></linearGradient></defs><g id="Calque_1-2"><path class="cls-1" d="m187.64,69.9c5.45-2.04,11.59.71,13.06,6.35,5.54,21.24,4.11,43.8-4.26,64.3-9.7,23.76-28,43-51.25,53.86-23.25,10.87-49.75,12.57-74.2,4.76-24.45-7.81-45.06-24.54-57.72-46.87C.61,129.97-3.17,103.69,2.7,78.7c5.86-24.99,20.93-46.85,42.2-61.22C66.16,3.11,92.06-2.71,117.44,1.17c21.88,3.35,41.98,13.71,57.36,29.37,4.08,4.16,3.29,10.83-1.26,14.46-4.55,3.63-11.14,2.82-15.33-1.23-11.98-11.57-27.32-19.22-43.95-21.77-20.13-3.08-40.67,1.54-57.54,12.94-16.87,11.4-28.82,28.74-33.47,48.56-4.65,19.82-1.66,40.67,8.38,58.38,10.04,17.71,26.39,30.99,45.79,37.18,19.4,6.19,40.41,4.84,58.86-3.78,18.45-8.62,32.96-23.88,40.66-42.73,6.36-15.58,7.67-32.67,3.9-48.89-1.32-5.67,1.37-11.74,6.82-13.79Z"/><g><path class="cls-2" d="m79.68,86.49c5.62,0,9.92,4.07,9.92,9.54,0,2.39-.87,4.98-2.62,7.67l-6.04,9.35h-6.46l5.85-8.43c-.61.27-1.33.34-1.9.34-5.02,0-8.66-3.99-8.66-8.85,0-5.47,4.29-9.61,9.92-9.61Zm0,13.75c2.47,0,4.41-1.9,4.41-4.29s-1.94-4.37-4.37-4.37-4.45,1.94-4.45,4.33,1.98,4.33,4.41,4.33Z"/><path class="cls-2" d="m93.2,101l1.94-14.06h14.97v4.86h-10.71l-.72,4.98c1.22-1.03,3-1.56,4.83-1.56,4.98,0,8.47,3.91,8.47,8.66,0,5.47-4.22,9.65-9.73,9.65s-9.57-3.5-9.69-8.55h5.43c.19,1.86,1.67,3.46,4.22,3.46,2.39,0,4.22-1.9,4.22-4.29s-1.86-4.26-4.29-4.26c-1.71,0-3.04.91-3.91,2.13l-5.02-1.03Z"/><path class="cls-2" d="m120.72,99.18c-3.61,0-6.5-2.74-6.5-6.27s2.89-6.27,6.5-6.27,6.54,2.74,6.54,6.27-2.93,6.27-6.54,6.27Zm-4.1,13.87l19.34-26.1h5.05l-19.34,26.1h-5.05Zm6.65-20.14c0-1.48-1.06-2.62-2.55-2.62s-2.55,1.14-2.55,2.62,1.06,2.62,2.55,2.62,2.55-1.14,2.55-2.62Zm7.1,14.17c0-3.53,2.89-6.27,6.5-6.27s6.54,2.74,6.54,6.27-2.89,6.27-6.54,6.27-6.5-2.74-6.5-6.27Zm9.08,0c0-1.48-1.1-2.62-2.58-2.62s-2.55,1.14-2.55,2.62,1.06,2.62,2.55,2.62,2.58-1.14,2.58-2.62Z"/></g></g></svg>