<?xml version="1.0" encoding="UTF-8"?><svg id="Calque_2" xmlns="http://www.w3.org/2000/svg" xmlns:xlink="http://www.w3.org/1999/xlink" viewBox="0 0 197.43 204"><defs><style>.cls-1{fill:url(#Dégradé_sans_nom);}.cls-2{fill:#f9f9f9;}</style><linearGradient id="Dégradé_sans_nom" x1="-16.76" y1="16.34" x2="187.24" y2="15.6" gradientTransform="translate(28.62 55.77) rotate(21.6)" gradientUnits="userSpaceOnUse"><stop offset="0" stop-color="#aa367c"/><stop offset="1" stop-color="#4a2fbd"/></linearGradient></defs><g id="Calque_1-2"><path class="cls-1" d="m196.74,139.8l-.04.11c-.07.17-.14.34-.21.51-9.55,23.49-27.52,42.6-50.4,53.57-23.15,11.09-49.63,13.05-74.16,5.49-24.53-7.57-45.3-24.11-58.17-46.31C.89,130.96-3.14,104.71,2.47,79.67c5.62-25.04,20.48-47.05,41.61-61.62C65.2,3.47,91.04-2.6,116.46,1.03c21.91,3.14,42.11,13.31,57.64,28.81,4.11,4.11,3.39,10.8-1.13,14.47-4.52,3.67-11.12,2.93-15.34-1.07-12.1-11.45-27.51-18.95-44.17-21.34-20.15-2.88-40.66,1.94-57.41,13.5-16.76,11.56-28.55,29.02-33,48.88-4.46,19.86-1.26,40.68,8.96,58.3,10.21,17.62,26.69,30.72,46.15,36.73,19.46,6,40.45,4.44,58.81-4.36,17.95-8.59,32.08-23.49,39.72-41.83l.02-.05c.09-.32.2-.64.33-.97,2.13-5.38,8.27-8,13.7-5.85s8.01,8.03,6.07,13.34c-.01.06-.04.12-.06.18Z"/><g><path class="cls-2" d="m77.66,85.58c5.62,0,9.92,4.07,9.92,9.54,0,2.39-.87,4.98-2.62,7.67l-6.04,9.35h-6.46l5.85-8.43c-.61.27-1.33.34-1.9.34-5.02,0-8.66-3.99-8.66-8.85,0-5.47,4.29-9.61,9.92-9.61Zm0,13.75c2.47,0,4.41-1.9,4.41-4.29s-1.94-4.37-4.37-4.37-4.45,1.94-4.45,4.33,1.98,4.33,4.41,4.33Z"/><path class="cls-2" d="m101.71,85.58c7.41,0,11.17,6.42,11.17,13.53s-3.76,13.53-11.17,13.53-11.17-6.42-11.17-13.53,3.76-13.53,11.17-13.53Zm0,5.28c-3.84,0-5.51,4.1-5.51,8.24s1.67,8.25,5.51,8.25,5.51-4.1,5.51-8.25-1.67-8.24-5.51-8.24Z"/><path class="cls-2" d="m122.23,98.27c-3.61,0-6.5-2.74-6.5-6.27s2.89-6.27,6.5-6.27,6.54,2.74,6.54,6.27-2.93,6.27-6.54,6.27Zm-4.1,13.87l19.34-26.1h5.05l-19.34,26.1h-5.05Zm6.65-20.14c0-1.48-1.06-2.62-2.55-2.62s-2.55,1.14-2.55,2.62,1.06,2.62,2.55,2.62,2.55-1.14,2.55-2.62Zm7.1,14.17c0-3.53,2.89-6.27,6.5-6.27s6.54,2.74,6.54,6.27-2.89,6.27-6.54,6.27-6.5-2.74-6.5-6.27Zm9.08,0c0-1.48-1.1-2.62-2.58-2.62s-2.55,1.14-2.55,2.62,1.06,2.62,2.55,2.62,2.58-1.14,2.58-2.62Z"/></g></g></svg>