<?xml version="1.0" encoding="UTF-8"?><svg id="Calque_2" xmlns="http://www.w3.org/2000/svg" xmlns:xlink="http://www.w3.org/1999/xlink" viewBox="0 0 177.02 203.97"><defs><style>.cls-1{fill:url(#Dégradé_sans_nom);}.cls-2{fill:#f9f9f9;}</style><linearGradient id="Dégradé_sans_nom" x1="59.93" y1="195.28" x2="133.42" y2="34.03" gradientTransform="translate(152.47 -33.72) rotate(65.34)" gradientUnits="userSpaceOnUse"><stop offset="0" stop-color="#aa367c"/><stop offset="1" stop-color="#4a2fbd"/></linearGradient></defs><g id="Calque_1-2"><path class="cls-1" d="m145.48,194.27c-.12.05.12-.05,0,0h0c-23.06,10.81-49.55,12.69-73.86,5.11-24.51-7.65-45.23-24.25-58.03-46.5C.79,130.63-3.15,104.38,2.55,79.35c5.7-25.02,20.63-46.98,41.8-61.48C65.52,3.35,91.38-2.64,116.78,1.08c21.91,3.21,42.07,13.44,57.55,29,4.1,4.13,3.36,10.81-1.17,14.47-4.53,3.67-11.13,2.9-15.35-1.12-12.06-11.5-27.44-19.05-44.09-21.48-20.15-2.95-40.67,1.8-57.46,13.31-16.8,11.51-28.64,28.92-33.16,48.78-4.53,19.85-1.39,40.68,8.76,58.33,10.15,17.65,26.59,30.82,46.03,36.89,18.87,5.89,40.11,4.16,58.11-3.94.54-.39-.63.29,0,0,5.34-2.45,12.53-.61,14.98,4.72,2.45,5.34-.17,11.78-5.52,14.23Z"/><g><path class="cls-2" d="m67.84,104.28c0-3.27,2.24-5.43,4.37-6.35-1.82-.95-3.27-2.77-3.27-5.21,0-4.41,3.91-7.29,8.59-7.29s8.59,2.89,8.59,7.29c0,2.43-1.44,4.26-3.27,5.21,2.13.91,4.37,3.08,4.37,6.35,0,5.17-4.64,8.21-9.69,8.21s-9.69-3.04-9.69-8.21Zm13.87-.23c0-2.24-1.79-3.72-4.18-3.72s-4.18,1.48-4.18,3.72,1.79,3.72,4.18,3.72,4.18-1.56,4.18-3.72Zm-4.18-14.02c-1.94,0-3.46,1.25-3.46,3.04s1.52,3.08,3.46,3.08,3.46-1.22,3.46-3.08-1.52-3.04-3.46-3.04Z"/><path class="cls-2" d="m101.36,85.44c7.41,0,11.17,6.42,11.17,13.53s-3.76,13.53-11.17,13.53-11.17-6.42-11.17-13.53,3.76-13.53,11.17-13.53Zm0,5.28c-3.84,0-5.51,4.1-5.51,8.24s1.67,8.25,5.51,8.25,5.51-4.1,5.51-8.25-1.67-8.24-5.51-8.24Z"/><path class="cls-2" d="m121.88,98.13c-3.61,0-6.5-2.74-6.5-6.27s2.89-6.27,6.5-6.27,6.54,2.74,6.54,6.27-2.93,6.27-6.54,6.27Zm-4.1,13.87l19.34-26.1h5.05l-19.34,26.1h-5.05Zm6.65-20.14c0-1.48-1.06-2.62-2.55-2.62s-2.55,1.14-2.55,2.62,1.06,2.62,2.55,2.62,2.55-1.14,2.55-2.62Zm7.1,14.17c0-3.53,2.89-6.27,6.5-6.27s6.54,2.74,6.54,6.27-2.89,6.27-6.54,6.27-6.5-2.74-6.5-6.27Zm9.08,0c0-1.48-1.1-2.62-2.58-2.62s-2.55,1.14-2.55,2.62,1.06,2.62,2.55,2.62,2.58-1.14,2.58-2.62Z"/></g></g></svg>